<svg id="Layer_1" data-name="Layer 1" xmlns="http://www.w3.org/2000/svg" xmlns:xlink="http://www.w3.org/1999/xlink" width="4254" height="341.24" viewBox="0 0 4254 341.24"><defs><clipPath id="clip-path"><rect x="25.75" y="-0.2" width="4202.5" height="341.64" style="fill:none"/></clipPath></defs><title>chaconne</title><g style="clip-path:url(#clip-path)"><line x1="518.35" y1="124.97" x2="518.35" y2="209.33" style="fill:none;stroke:#020201;stroke-linejoin:bevel;stroke-width:3.2955834681150735px"/><line x1="972.48" y1="124.97" x2="972.48" y2="209.33" style="fill:none;stroke:#020201;stroke-linejoin:bevel;stroke-width:3.2955834681150735px"/><line x1="1425.96" y1="124.97" x2="1425.96" y2="209.33" style="fill:none;stroke:#020201;stroke-linejoin:bevel;stroke-width:3.2955834681150735px"/><line x1="2037.62" y1="124.97" x2="2037.62" y2="209.33" style="fill:none;stroke:#020201;stroke-linejoin:bevel;stroke-width:3.2955834681150735px"/><line x1="2658.51" y1="124.97" x2="2658.51" y2="209.33" style="fill:none;stroke:#020201;stroke-linejoin:bevel;stroke-width:3.2955834681150735px"/><line x1="3111.98" y1="124.97" x2="3111.98" y2="209.33" style="fill:none;stroke:#020201;stroke-linejoin:bevel;stroke-width:3.2955834681150735px"/><line x1="3566.11" y1="124.97" x2="3566.11" y2="209.33" style="fill:none;stroke:#020201;stroke-linejoin:bevel;stroke-width:3.2955834681150735px"/><line x1="4177.11" y1="124.97" x2="4177.11" y2="209.33" style="fill:none;stroke:#020201;stroke-linejoin:bevel;stroke-width:3.2955834681150735px"/><path d="M185.06,164.75c-8.16,0-14.45-3.24-14.45-8.76a5.27,5.27,0,0,1,5.53-5.1c2.8,0,5.18,1.87,5.18,4.59a6.8,6.8,0,0,1-2.46,5.27,7.78,7.78,0,0,0,5.1,1.44c4.17,0,6.46-3.4,6.46-7.56,0-4.85-1.78-7.14-5.36-7.91-3.4-.25-6.12-.68-6.12-1.44,0-3,.68-2.47,3.57-2.81,5.36-.51,7.66-2.13,7.66-7.48,0-5.19-2.55-7.82-7.57-7.82-2,0-3.23.42-4,1.19,1.45,1.7,3.06,3.31,3.06,5.95s-2.38,4.33-5.18,4.33a5.25,5.25,0,0,1-5.44-5.35c0-5.61,5.69-8.85,13.86-8.85,8.92,0,14.53,3.75,14.53,10.63a10.19,10.19,0,0,1-6.8,9.27l.09.08c4.42.94,7.48,4.26,7.48,8.68C200.2,160.83,194.5,164.75,185.06,164.75Z" style="fill:#020201"/><path d="M196.34,198.23v2.21a14.17,14.17,0,0,0-.09,1.61c0,2.13.77,2.55,4.85,2.89l.34,2.47H180.52l.17-2.38c2.64-.17,4.25-.77,4.76-1.7a25.13,25.13,0,0,0,.26-5.1H168.36v-3.4c5.19-6.64,10.12-18.79,10.8-27.12H193.7c-.85,3.82-3.83,8.41-9,13.6-5.7,5.7-9.19,10.12-10.46,13.35h11.48V185l10.63-9.43v19.13h5.35v3.57Z" style="fill:#020201"/><line x1="39.83" y1="209.33" x2="4178.43" y2="209.33" style="fill:none;stroke:#020201;stroke-linejoin:bevel;stroke-width:1.977349949493966px"/><line x1="39.83" y1="188.24" x2="4178.43" y2="188.24" style="fill:none;stroke:#020201;stroke-linejoin:bevel;stroke-width:1.977349949493966px"/><line x1="39.83" y1="167.15" x2="4178.43" y2="167.15" style="fill:none;stroke:#020201;stroke-linejoin:bevel;stroke-width:1.977349949493966px"/><line x1="39.83" y1="146.06" x2="4178.43" y2="146.06" style="fill:none;stroke:#020201;stroke-linejoin:bevel;stroke-width:1.977349949493966px"/><line x1="39.83" y1="124.97" x2="4178.43" y2="124.97" style="fill:none;stroke:#020201;stroke-linejoin:bevel;stroke-width:1.977349949493966px"/><path d="M90.16,208.66c-17.89,0-34.34-13.25-34.34-29.2q0-20.37,28.86-44.54a65.44,65.44,0,0,1-1.86-15.35c0-14.94,5-28.94,13.67-35.94C104.16,94.26,108,104.38,108,113.91c0,12.4-5.74,23.71-18.31,34.34l3.72,17.8c2-.17,3.2-.25,3.37-.25,11.22,0,20.25,8.6,20.25,19.82,0,8.19-6.16,15.95-15.19,20.34-.08-.6,3.63,16.11,3.63,18.47,0,10.55-9.62,17.89-20.92,17.89-8.44,0-15.44-5.66-15.44-14.26,0-6.16,4.22-10.88,10.38-10.88,5.39,0,9.61,5.4,9.61,10.54,0,5.82-4.89,9.79-11.39,10.46a17.76,17.76,0,0,0,8,1.94c9.11,0,17.55-6.91,17.55-15.18a14.35,14.35,0,0,0-.26-2.62l-3.2-15.6A20.57,20.57,0,0,1,90.16,208.66ZM80.8,186.47c0,4.3,2.27,7.93,6.91,10.8-7.59-1.19-12.65-6.16-12.65-13.25,0-8.35,7.42-15.78,16.2-17.63l-3.55-16.88c-15.77,11.82-24.13,23.37-24.13,34.6,0,12.4,11.82,22.61,25.48,22.61a20.74,20.74,0,0,0,10.21-2.28l-6.07-29C86.19,176.34,80.8,180.65,80.8,186.47ZM98,95.69c-7,0-12.24,15.61-12.24,29.78a34.85,34.85,0,0,0,.76,8.1c11.39-10.12,17.21-19.32,17.21-27.5a14.13,14.13,0,0,0-4.22-10.21A7.07,7.07,0,0,0,98,95.69Zm11.72,93.05c0-7-5.06-13.83-12.31-13.83-.26,0-.93.08-2.11.17l6,28.18C106.78,199.21,109.73,194.31,109.73,188.74Z" style="fill:#020201"/><path d="M129.47,131.8h2.7l-.59,26.58c1.69-2.79,4.31-4.14,7.85-4.14,5.06,0,9.36,3.54,9.36,8.27-.16,3.2-2.19,7.51-7.42,11.3l-11.9,8.78Zm2.45,29.36a80.08,80.08,0,0,0-.5,8.27,55.61,55.61,0,0,0,.42,8.35c4.38-2.79,10.2-11.22,10.2-15.61a4.52,4.52,0,0,0-4.72-4.55C135,157.62,133.19,158.8,131.92,161.16Z" style="fill:#020201"/><path d="M673.47,201.4v12.07l4.39-1.44v7.68l-4.39,1.43v14.6l4.39-1.43V242l-4.39,1.44v13.24h-2.11V244l-8.1,2.7v12.65h-2.11V247.3l-4.38,1.43v-7.68l4.38-1.43V225l-4.38,1.43v-7.68l4.38-1.43V204.1h2.11v12.66l8.1-2.7V201.4Zm-2.11,20.34-8.1,2.69V239l8.1-2.7Z" style="fill:#020201"/><path d="M1718.83,201.4v12.07l4.39-1.44v7.68l-4.39,1.43v14.6l4.39-1.43V242l-4.39,1.44v13.24h-2.11V244l-8.09,2.7v12.65h-2.11V247.3l-4.39,1.43v-7.68l4.39-1.43V225l-4.39,1.43v-7.68l4.39-1.43V204.1h2.11v12.66l8.09-2.7V201.4Zm-2.11,20.34-8.09,2.69V239l8.09-2.7Z" style="fill:#020201"/><polygon points="1762.77 146.06 1990.82 151.33 1990.82 140.79 1762.77 135.51 1762.77 146.06" style="fill:#020201;fill-rule:evenodd"/><polygon points="1762.77 130.24 1990.82 135.51 1990.82 124.97 1762.77 119.69 1762.77 130.24" style="fill:#020201;fill-rule:evenodd"/><rect x="2098.92" y="140.79" width="228.05" height="10.55" style="fill:#020201"/><rect x="2098.92" y="124.97" width="228.05" height="10.55" style="fill:#020201"/><path d="M2813,201.4v12.07l4.38-1.44v7.68l-4.38,1.43v14.6l4.38-1.43V242l-4.38,1.44v13.24h-2.11V244l-8.1,2.7v12.65h-2.11V247.3l-4.39,1.43v-7.68l4.39-1.43V225l-4.39,1.43v-7.68l4.39-1.43V204.1h2.11v12.66l8.1-2.7V201.4Zm-2.11,20.34-8.1,2.69V239l8.1-2.7Z" style="fill:#020201"/><path d="M3726.5,127.58v12.07l4.39-1.44v7.68l-4.39,1.43v14.6l4.39-1.43v7.67l-4.39,1.44v13.24h-2.11V170.19l-8.1,2.7v12.65h-2.11V173.48l-4.38,1.43v-7.68l4.38-1.43V151.2l-4.38,1.44V145l4.38-1.43V130.28h2.11v12.66l8.1-2.7V127.58Zm-2.11,20.33-8.1,2.7v14.6l8.1-2.7Z" style="fill:#020201"/><polygon points="3882.49 84.1 3947.74 88.06 3947.74 77.51 3882.49 73.56 3882.49 84.1" style="fill:#020201;fill-rule:evenodd"/><polygon points="3882.49 68.28 3947.74 72.24 3947.74 61.69 3882.49 57.74 3882.49 68.28" style="fill:#020201;fill-rule:evenodd"/><polygon points="3765.16 45.87 3947.74 56.42 3947.74 45.87 3765.16 35.33 3765.16 45.87" style="fill:#020201;fill-rule:evenodd"/><polygon points="4076.92 191.54 4103.29 193.52 4103.29 182.97 4076.92 180.99 4076.92 191.54" style="fill:#020201;fill-rule:evenodd"/><polygon points="3985.31 198.79 4103.29 209.33 4103.29 198.79 3985.31 188.24 3985.31 198.79" style="fill:#020201;fill-rule:evenodd"/><path d="M1770.68,114.42c31.63-32.95,180.59-32.95,212.23,0" style="fill:none;stroke:#020201;stroke-linejoin:bevel;stroke-width:1.3182334091418757px"/><path d="M1770.68,114.42c31.63-36.25,180.59-36.25,212.23,0C1951.27,84.76,1802.31,84.76,1770.68,114.42Z" style="fill:#020201;fill-rule:evenodd"/><path d="M1770.68,114.42c31.63-36.25,180.59-36.25,212.23,0C1951.27,84.76,1802.31,84.76,1770.68,114.42Z" style="fill:none;stroke:#020201;stroke-linejoin:bevel;stroke-width:0.6591167045709379px"/><path d="M2106.82,114.42c10.55-22.41,48.78-22.41,60,0" style="fill:none;stroke:#020201;stroke-linejoin:bevel;stroke-width:1.3182334091418757px"/><path d="M2106.82,114.42c10.55-25.7,48.78-25.7,60,0C2155.6,95.31,2117.37,95.31,2106.82,114.42Z" style="fill:#020201;fill-rule:evenodd"/><path d="M2106.82,114.42c10.55-25.7,48.78-25.7,60,0C2155.6,95.31,2117.37,95.31,2106.82,114.42Z" style="fill:none;stroke:#020201;stroke-linejoin:bevel;stroke-width:0.6591167045709379px"/><path d="M2258.42,114.42c10.55-22.41,49.44-22.41,60.64,0" style="fill:none;stroke:#020201;stroke-linejoin:bevel;stroke-width:1.3182334091418757px"/><path d="M2258.42,114.42c10.55-25.7,49.44-25.7,60.64,0C2307.86,95.31,2269,95.31,2258.42,114.42Z" style="fill:#020201;fill-rule:evenodd"/><path d="M2258.42,114.42c10.55-25.7,49.44-25.7,60.64,0C2307.86,95.31,2269,95.31,2258.42,114.42Z" style="fill:none;stroke:#020201;stroke-linejoin:bevel;stroke-width:0.6591167045709379px"/><line x1="263.28" y1="174.4" x2="263.28" y2="103.88" style="fill:none;stroke:#020201;stroke-linejoin:bevel;stroke-width:1.977349949493966px"/><path d="M234.93,181.32c0-7.59,10.72-14.68,19.24-14.68,5.65,0,9.62,2.87,9.62,7.34,0,7.43-10.72,14.68-19.41,14.68C239.07,188.66,234.93,186,234.93,181.32Z" style="fill:#020201"/><path d="M281.83,177.7a4,4,0,0,1-4.05,3.79,4.09,4.09,0,0,1-3.89-3.79,4,4,0,1,1,7.94,0Z" style="fill:#020201"/><line x1="235.59" y1="202.08" x2="235.59" y2="277.88" style="fill:none;stroke:#020201;stroke-linejoin:bevel;stroke-width:1.977349949493966px"/><path d="M253.07,187.31c7,0,11.56,3.13,11.56,8.52,0,7.94-9.7,14.35-19.32,14.35-5.74,0-10.38-2.79-10.38-7.51C234.93,194.91,244.47,187.31,253.07,187.31Zm-16.2,16.37c0,2.62,1.61,4,4.81,4,6,0,21-9,21-13.84,0-2.62-1.6-4-4.81-4C252.48,189.85,236.87,198.45,236.87,203.68Z" style="fill:#020201"/><path d="M253.07,208.41c7,0,11.56,3.12,11.56,8.52,0,7.93-9.7,14.34-19.32,14.34-5.74,0-10.38-2.78-10.38-7.51C234.93,216,244.47,208.41,253.07,208.41Zm-16.2,16.36c0,2.62,1.61,4,4.81,4,6,0,21-8.94,21-13.84,0-2.61-1.6-4-4.81-4C252.48,210.94,236.87,219.54,236.87,224.77Z" style="fill:#020201"/><line x1="448.49" y1="174.4" x2="448.49" y2="103.88" style="fill:none;stroke:#020201;stroke-linejoin:bevel;stroke-width:1.977349949493966px"/><path d="M420.14,181.32c0-7.59,10.72-14.68,19.24-14.68,5.65,0,9.62,2.87,9.62,7.34,0,7.43-10.72,14.68-19.41,14.68C424.28,188.66,420.14,186,420.14,181.32Z" style="fill:#020201"/><path d="M448.67,103.88c.76,0,1.18,0,1.1.08a1.56,1.56,0,0,0-.09.68,2.15,2.15,0,0,0,.09.75,65.07,65.07,0,0,0,9.28,17c4.64,5.82,7.25,9.28,7.85,10.29a19,19,0,0,1,3,10.29v.42c0,10.8-4.3,16.71-5.14,16.71a.63.63,0,0,1-.68-.68,4.65,4.65,0,0,1,.51-1.6c2.19-4.89,2.28-5.48,2.44-13.08v-.42c0-5.9-3.46-11.22-10.29-16-2.45-1.77-3.88-3.37-8.1-3.37Z" style="fill:#020201"/><line x1="579.65" y1="163.86" x2="579.65" y2="77.51" style="fill:none;stroke:#020201;stroke-linejoin:bevel;stroke-width:1.977349949493966px"/><path d="M551.31,170.78c0-7.6,10.71-14.68,19.23-14.68,5.66,0,9.62,2.87,9.62,7.34,0,7.42-10.71,14.68-19.4,14.68C555.44,178.12,551.31,175.42,551.31,170.78Z" style="fill:#020201"/><path d="M551.31,139.14c0-7.59,10.71-14.68,19.23-14.68,5.66,0,9.62,2.87,9.62,7.34,0,7.42-10.71,14.68-19.4,14.68C555.44,146.48,551.31,143.78,551.31,139.14Z" style="fill:#020201"/><line x1="551.97" y1="191.54" x2="551.97" y2="277.88" style="fill:none;stroke:#020201;stroke-linejoin:bevel;stroke-width:1.977349949493966px"/><path d="M551.31,191.87c0-7.6,10.71-14.68,19.23-14.68,5.66,0,9.62,2.87,9.62,7.34,0,7.42-10.71,14.68-19.4,14.68C555.44,199.21,551.31,196.51,551.31,191.87Z" style="fill:#020201"/><path d="M551.31,223.51c0-7.6,10.71-14.68,19.23-14.68,5.66,0,9.62,2.87,9.62,7.34,0,7.42-10.71,14.68-19.4,14.68C555.44,230.85,551.31,228.15,551.31,223.51Z" style="fill:#020201"/><line x1="717.41" y1="132.22" x2="717.41" y2="77.51" style="fill:none;stroke:#020201;stroke-linejoin:bevel;stroke-width:1.977349949493966px"/><path d="M689.06,139.14c0-7.59,10.72-14.68,19.24-14.68,5.65,0,9.62,2.87,9.62,7.34,0,7.42-10.72,14.68-19.41,14.68C693.2,146.48,689.06,143.78,689.06,139.14Z" style="fill:#020201"/><path d="M736,135.51a4,4,0,0,1-4.05,3.8,4.1,4.1,0,0,1-3.88-3.8,4,4,0,1,1,7.93,0Z" style="fill:#020201"/><line x1="681.16" y1="230.43" x2="726.63" y2="230.43" style="fill:none;stroke:#020201;stroke-linejoin:bevel;stroke-width:3.2955834681150735px"/><line x1="689.72" y1="180.99" x2="689.72" y2="288.43" style="fill:none;stroke:#020201;stroke-linejoin:bevel;stroke-width:1.977349949493966px"/><path d="M707.2,166.22c7,0,11.56,3.12,11.56,8.52,0,7.93-9.7,14.35-19.32,14.35-5.74,0-10.38-2.79-10.38-7.51C689.06,173.82,698.6,166.22,707.2,166.22ZM691,182.59c0,2.61,1.61,4,4.81,4,6,0,21-8.94,21-13.83,0-2.62-1.6-4-4.81-4C706.61,168.75,691,177.36,691,182.59Z" style="fill:#020201"/><path d="M679.52,176.77c7,0,11.56,3.12,11.56,8.52,0,7.93-9.7,14.34-19.32,14.34-5.74,0-10.38-2.79-10.38-7.51C661.38,184.36,670.91,176.77,679.52,176.77Zm-16.2,16.36c0,2.62,1.6,4,4.81,4,6,0,21-8.95,21-13.84,0-2.61-1.61-4-4.81-4C678.93,179.3,663.32,187.9,663.32,193.13Z" style="fill:#020201"/><path d="M707.2,219c7,0,11.56,3.12,11.56,8.52,0,7.93-9.7,14.34-19.32,14.34-5.74,0-10.38-2.78-10.38-7.5C689.06,226.54,698.6,219,707.2,219ZM691,235.32c0,2.61,1.61,4,4.81,4,6,0,21-8.94,21-13.83,0-2.62-1.6-4-4.81-4C706.61,221.48,691,230.09,691,235.32Z" style="fill:#020201"/><line x1="902.62" y1="132.22" x2="902.62" y2="77.51" style="fill:none;stroke:#020201;stroke-linejoin:bevel;stroke-width:1.977349949493966px"/><path d="M874.28,139.14c0-7.59,10.71-14.68,19.23-14.68,5.66,0,9.62,2.87,9.62,7.34,0,7.42-10.71,14.68-19.4,14.68C878.41,146.48,874.28,143.78,874.28,139.14Z" style="fill:#020201"/><path d="M902.8,77.51c.76,0,1.18,0,1.1.08a1.56,1.56,0,0,0-.09.68,2.23,2.23,0,0,0,.09.76,65.16,65.16,0,0,0,9.28,17c4.64,5.82,7.26,9.28,7.85,10.29a19.06,19.06,0,0,1,3,10.29v.43c0,10.8-4.3,16.7-5.14,16.7a.62.62,0,0,1-.68-.67,4.62,4.62,0,0,1,.51-1.61c2.19-4.89,2.28-5.48,2.44-13.07V118c0-5.9-3.45-11.22-10.29-16-2.44-1.77-3.88-3.37-8.1-3.37Z" style="fill:#020201"/><line x1="1033.78" y1="174.4" x2="1033.78" y2="66.97" style="fill:none;stroke:#020201;stroke-linejoin:bevel;stroke-width:1.977349949493966px"/><path d="M1005.44,181.32c0-7.59,10.72-14.68,19.24-14.68,5.65,0,9.61,2.87,9.61,7.34,0,7.43-10.71,14.68-19.4,14.68C1009.58,188.66,1005.44,186,1005.44,181.32Z" style="fill:#020201"/><path d="M1005.44,128.6c0-7.6,10.72-14.68,19.24-14.68,5.65,0,9.61,2.86,9.61,7.34,0,7.42-10.71,14.68-19.4,14.68C1009.58,135.94,1005.44,133.24,1005.44,128.6Z" style="fill:#020201"/><line x1="1006.1" y1="202.08" x2="1006.1" y2="277.88" style="fill:none;stroke:#020201;stroke-linejoin:bevel;stroke-width:1.977349949493966px"/><path d="M1005.44,202.42c0-7.6,10.72-14.68,19.24-14.68,5.65,0,9.61,2.86,9.61,7.34,0,7.42-10.71,14.68-19.4,14.68C1009.58,209.76,1005.44,207.06,1005.44,202.42Z" style="fill:#020201"/><path d="M1005.44,223.51c0-7.6,10.72-14.68,19.24-14.68,5.65,0,9.61,2.87,9.61,7.34,0,7.42-10.71,14.68-19.4,14.68C1009.58,230.85,1005.44,228.15,1005.44,223.51Z" style="fill:#020201"/><line x1="1170.88" y1="142.76" x2="1170.88" y2="82.78" style="fill:none;stroke:#020201;stroke-linejoin:bevel;stroke-width:1.977349949493966px"/><path d="M1142.54,149.69c0-7.6,10.71-14.68,19.23-14.68,5.65,0,9.62,2.87,9.62,7.34,0,7.42-10.72,14.68-19.41,14.68C1146.67,157,1142.54,154.33,1142.54,149.69Z" style="fill:#020201"/><path d="M1189.43,135.51a4,4,0,0,1-4,3.8,4.1,4.1,0,0,1-3.88-3.8,4,4,0,1,1,7.93,0Z" style="fill:#020201"/><line x1="1134.63" y1="230.43" x2="1180.11" y2="230.43" style="fill:none;stroke:#020201;stroke-linejoin:bevel;stroke-width:3.2955834681150735px"/><line x1="1143.2" y1="202.08" x2="1143.2" y2="298.97" style="fill:none;stroke:#020201;stroke-linejoin:bevel;stroke-width:1.977349949493966px"/><path d="M1160.67,187.31c7,0,11.56,3.13,11.56,8.52,0,7.94-9.7,14.35-19.32,14.35-5.73,0-10.37-2.79-10.37-7.51C1142.54,194.91,1152.07,187.31,1160.67,187.31Zm-16.19,16.37c0,2.62,1.6,4,4.8,4,6,0,21-9,21-13.84,0-2.62-1.6-4-4.81-4C1160.08,189.85,1144.48,198.45,1144.48,203.68Z" style="fill:#020201"/><path d="M1160.67,229.5c7,0,11.56,3.12,11.56,8.52,0,7.93-9.7,14.34-19.32,14.34-5.73,0-10.37-2.79-10.37-7.51C1142.54,237.09,1152.07,229.5,1160.67,229.5Zm-16.19,16.36c0,2.62,1.6,4,4.8,4,6,0,21-8.94,21-13.84,0-2.61-1.6-4-4.81-4C1160.08,232,1144.48,240.63,1144.48,245.86Z" style="fill:#020201"/><line x1="1356.75" y1="153.31" x2="1356.75" y2="88.06" style="fill:none;stroke:#020201;stroke-linejoin:bevel;stroke-width:1.977349949493966px"/><path d="M1328.41,160.23c0-7.59,10.71-14.68,19.23-14.68,5.65,0,9.62,2.87,9.62,7.34,0,7.43-10.72,14.68-19.4,14.68C1332.54,167.57,1328.41,164.87,1328.41,160.23Z" style="fill:#020201"/><path d="M1356.93,88.06c.76,0,1.18,0,1.1.08a1.74,1.74,0,0,0-.08.68,2.4,2.4,0,0,0,.08.75,65.07,65.07,0,0,0,9.28,17.05c4.64,5.82,7.26,9.28,7.85,10.29a19,19,0,0,1,3,10.29v.42c0,10.8-4.3,16.71-5.14,16.71a.63.63,0,0,1-.68-.68,4.65,4.65,0,0,1,.51-1.6c2.19-4.89,2.28-5.48,2.45-13.08v-.42c0-5.9-3.46-11.22-10.3-16-2.44-1.77-3.88-3.37-8.1-3.37Z" style="fill:#020201"/><line x1="1487.25" y1="163.86" x2="1487.25" y2="93.33" style="fill:none;stroke:#020201;stroke-linejoin:bevel;stroke-width:1.977349949493966px"/><path d="M1458.91,170.78c0-7.6,10.72-14.68,19.24-14.68,5.65,0,9.62,2.87,9.62,7.34,0,7.42-10.72,14.68-19.41,14.68C1463.05,178.12,1458.91,175.42,1458.91,170.78Z" style="fill:#020201"/><line x1="1451" y1="230.43" x2="1495.82" y2="230.43" style="fill:none;stroke:#020201;stroke-linejoin:bevel;stroke-width:3.2955834681150735px"/><line x1="1451" y1="251.52" x2="1495.82" y2="251.52" style="fill:none;stroke:#020201;stroke-linejoin:bevel;stroke-width:3.2955834681150735px"/><line x1="1459.57" y1="191.54" x2="1459.57" y2="320.07" style="fill:none;stroke:#020201;stroke-linejoin:bevel;stroke-width:1.977349949493966px"/><path d="M1458.91,191.87c0-7.6,10.72-14.68,19.24-14.68,5.65,0,9.62,2.87,9.62,7.34,0,7.42-10.72,14.68-19.41,14.68C1463.05,199.21,1458.91,196.51,1458.91,191.87Z" style="fill:#020201"/><path d="M1458.91,265.69c0-7.59,10.72-14.68,19.24-14.68,5.65,0,9.62,2.87,9.62,7.34,0,7.43-10.72,14.68-19.41,14.68C1463.05,273,1458.91,270.33,1458.91,265.69Z" style="fill:#020201"/><line x1="1625.01" y1="174.4" x2="1625.01" y2="103.88" style="fill:none;stroke:#020201;stroke-linejoin:bevel;stroke-width:1.977349949493966px"/><path d="M1596.67,181.32c0-7.59,10.71-14.68,19.24-14.68,5.65,0,9.61,2.87,9.61,7.34,0,7.43-10.71,14.68-19.4,14.68C1600.8,188.66,1596.67,186,1596.67,181.32Z" style="fill:#020201"/><line x1="1588.76" y1="230.43" x2="1633.58" y2="230.43" style="fill:none;stroke:#020201;stroke-linejoin:bevel;stroke-width:3.2955834681150735px"/><line x1="1588.76" y1="251.52" x2="1633.58" y2="251.52" style="fill:none;stroke:#020201;stroke-linejoin:bevel;stroke-width:3.2955834681150735px"/><line x1="1597.33" y1="202.08" x2="1597.33" y2="309.52" style="fill:none;stroke:#020201;stroke-linejoin:bevel;stroke-width:1.977349949493966px"/><path d="M1596.67,202.42c0-7.6,10.71-14.68,19.24-14.68,5.65,0,9.61,2.86,9.61,7.34,0,7.42-10.71,14.68-19.4,14.68C1600.8,209.76,1596.67,207.06,1596.67,202.42Z" style="fill:#020201"/><path d="M1596.67,255.14c0-7.59,10.71-14.68,19.24-14.68,5.65,0,9.61,2.87,9.61,7.34,0,7.43-10.71,14.68-19.4,14.68C1600.8,262.48,1596.67,259.78,1596.67,255.14Z" style="fill:#020201"/><line x1="1726.51" y1="230.43" x2="1771.33" y2="230.43" style="fill:none;stroke:#020201;stroke-linejoin:bevel;stroke-width:3.2955834681150735px"/><line x1="1735.08" y1="233.72" x2="1735.08" y2="288.43" style="fill:none;stroke:#020201;stroke-linejoin:bevel;stroke-width:1.977349949493966px"/><path d="M1734.42,234.05c0-7.59,10.72-14.68,19.24-14.68,5.65,0,9.61,2.87,9.61,7.34,0,7.43-10.71,14.68-19.4,14.68C1738.56,241.39,1734.42,238.69,1734.42,234.05Z" style="fill:#020201"/><line x1="1762.77" y1="184.95" x2="1762.77" y2="120.35" style="fill:none;stroke:#020201;stroke-linejoin:bevel;stroke-width:1.977349949493966px"/><path d="M1734.42,191.87c0-7.6,10.72-14.68,19.24-14.68,5.65,0,9.61,2.87,9.61,7.34,0,7.42-10.71,14.68-19.4,14.68C1738.56,199.21,1734.42,196.51,1734.42,191.87Z" style="fill:#020201"/><line x1="1838.56" y1="195.49" x2="1838.56" y2="121.67" style="fill:none;stroke:#020201;stroke-linejoin:bevel;stroke-width:1.977349949493966px"/><path d="M1810.22,202.42c0-7.6,10.72-14.68,19.24-14.68,5.65,0,9.61,2.86,9.61,7.34,0,7.42-10.71,14.68-19.4,14.68C1814.35,209.76,1810.22,207.06,1810.22,202.42Z" style="fill:#020201"/><line x1="1915.02" y1="206.04" x2="1915.02" y2="123.65" style="fill:none;stroke:#020201;stroke-linejoin:bevel;stroke-width:1.977349949493966px"/><path d="M1886.68,213c0-7.59,10.71-14.68,19.24-14.68,5.65,0,9.61,2.87,9.61,7.34,0,7.42-10.71,14.68-19.4,14.68C1890.81,220.3,1886.68,217.6,1886.68,213Z" style="fill:#020201"/><line x1="1990.82" y1="195.49" x2="1990.82" y2="125.63" style="fill:none;stroke:#020201;stroke-linejoin:bevel;stroke-width:1.977349949493966px"/><path d="M1962.48,202.42c0-7.6,10.71-14.68,19.23-14.68,5.66,0,9.62,2.86,9.62,7.34,0,7.42-10.71,14.68-19.4,14.68C1966.61,209.76,1962.48,207.06,1962.48,202.42Z" style="fill:#020201"/><line x1="2071.23" y1="223.18" x2="2071.23" y2="277.88" style="fill:none;stroke:#020201;stroke-linejoin:bevel;stroke-width:1.977349949493966px"/><path d="M2070.57,223.51c0-7.6,10.72-14.68,19.24-14.68,5.65,0,9.62,2.87,9.62,7.34,0,7.42-10.72,14.68-19.41,14.68C2074.71,230.85,2070.57,228.15,2070.57,223.51Z" style="fill:#020201"/><path d="M2071.42,256.79c3.54,0,3.88-.08,9.11-4.3q6.19-4.94,7.34-6.08a20.53,20.53,0,0,0,5.57-13.92c0-3.63-1.44-8.27-4.39-13.75a3.46,3.46,0,0,1-.51-1.6c0-.51.09-.76.34-.76,2,0,5.4,8.27,6.5,12.57a26.45,26.45,0,0,1,.84,6.75,19.73,19.73,0,0,1-4.81,12.74c-3.12,3.71-6.58,7.08-9.62,10.8-3.71,4.55-6.66,10.46-9.28,17a2.43,2.43,0,0,0-.08.76,1.71,1.71,0,0,0,.08.67c.09.09-.33.09-1.09.09Z" style="fill:#020201"/><line x1="2098.92" y1="184.95" x2="2098.92" y2="125.63" style="fill:none;stroke:#020201;stroke-linejoin:bevel;stroke-width:1.977349949493966px"/><path d="M2070.57,191.87c0-7.6,10.72-14.68,19.24-14.68,5.65,0,9.62,2.87,9.62,7.34,0,7.42-10.72,14.68-19.41,14.68C2074.71,199.21,2070.57,196.51,2070.57,191.87Z" style="fill:#020201"/><line x1="2174.71" y1="206.04" x2="2174.71" y2="125.63" style="fill:none;stroke:#020201;stroke-linejoin:bevel;stroke-width:1.977349949493966px"/><path d="M2146.37,213c0-7.59,10.72-14.68,19.24-14.68,5.65,0,9.62,2.87,9.62,7.34,0,7.42-10.72,14.68-19.41,14.68C2150.51,220.3,2146.37,217.6,2146.37,213Z" style="fill:#020201"/><line x1="2250.51" y1="195.49" x2="2250.51" y2="125.63" style="fill:none;stroke:#020201;stroke-linejoin:bevel;stroke-width:1.977349949493966px"/><path d="M2222.17,202.42c0-7.6,10.72-14.68,19.24-14.68,5.65,0,9.62,2.86,9.62,7.34,0,7.42-10.72,14.68-19.41,14.68C2226.31,209.76,2222.17,207.06,2222.17,202.42Z" style="fill:#020201"/><line x1="2326.97" y1="216.58" x2="2326.97" y2="125.63" style="fill:none;stroke:#020201;stroke-linejoin:bevel;stroke-width:1.977349949493966px"/><path d="M2298.63,223.51c0-7.6,10.71-14.68,19.23-14.68,5.66,0,9.62,2.87,9.62,7.34,0,7.42-10.71,14.68-19.4,14.68C2302.76,230.85,2298.63,228.15,2298.63,223.51Z" style="fill:#020201"/><line x1="2402.77" y1="174.4" x2="2402.77" y2="103.88" style="fill:none;stroke:#020201;stroke-linejoin:bevel;stroke-width:1.977349949493966px"/><path d="M2374.42,181.32c0-7.59,10.72-14.68,19.24-14.68,5.65,0,9.62,2.87,9.62,7.34,0,7.43-10.72,14.68-19.41,14.68C2378.56,188.66,2374.42,186,2374.42,181.32Z" style="fill:#020201"/><path d="M2421.32,177.7a4,4,0,0,1-4.05,3.79,4.09,4.09,0,0,1-3.88-3.79,4,4,0,1,1,7.93,0Z" style="fill:#020201"/><line x1="2375.09" y1="202.08" x2="2375.09" y2="277.88" style="fill:none;stroke:#020201;stroke-linejoin:bevel;stroke-width:1.977349949493966px"/><path d="M2392.56,187.31c7,0,11.56,3.13,11.56,8.52,0,7.94-9.7,14.35-19.32,14.35-5.74,0-10.38-2.79-10.38-7.51C2374.42,194.91,2384,187.31,2392.56,187.31Zm-16.2,16.37c0,2.62,1.61,4,4.81,4,6,0,21-9,21-13.84,0-2.62-1.6-4-4.81-4C2392,189.85,2376.36,198.45,2376.36,203.68Z" style="fill:#020201"/><path d="M2392.56,208.41c7,0,11.56,3.12,11.56,8.52,0,7.93-9.7,14.34-19.32,14.34-5.74,0-10.38-2.78-10.38-7.51C2374.42,216,2384,208.41,2392.56,208.41Zm-16.2,16.36c0,2.62,1.61,4,4.81,4,6,0,21-8.94,21-13.84,0-2.61-1.6-4-4.81-4C2392,210.94,2376.36,219.54,2376.36,224.77Z" style="fill:#020201"/><line x1="2588.64" y1="174.4" x2="2588.64" y2="103.88" style="fill:none;stroke:#020201;stroke-linejoin:bevel;stroke-width:1.977349949493966px"/><path d="M2560.29,181.32c0-7.59,10.72-14.68,19.24-14.68,5.65,0,9.62,2.87,9.62,7.34,0,7.43-10.72,14.68-19.41,14.68C2564.43,188.66,2560.29,186,2560.29,181.32Z" style="fill:#020201"/><path d="M2588.82,103.88c.76,0,1.18,0,1.1.08a1.74,1.74,0,0,0-.08.68,2.4,2.4,0,0,0,.08.75,65.07,65.07,0,0,0,9.28,17c4.64,5.82,7.26,9.28,7.85,10.29a19,19,0,0,1,3,10.29v.42c0,10.8-4.3,16.71-5.14,16.71a.63.63,0,0,1-.68-.68,4.65,4.65,0,0,1,.51-1.6c2.19-4.89,2.28-5.48,2.45-13.08v-.42c0-5.9-3.46-11.22-10.3-16-2.44-1.77-3.88-3.37-8.1-3.37Z" style="fill:#020201"/><line x1="2719.8" y1="163.86" x2="2719.8" y2="77.51" style="fill:none;stroke:#020201;stroke-linejoin:bevel;stroke-width:1.977349949493966px"/><path d="M2691.46,170.78c0-7.6,10.71-14.68,19.23-14.68,5.66,0,9.62,2.87,9.62,7.34,0,7.42-10.71,14.68-19.4,14.68C2695.59,178.12,2691.46,175.42,2691.46,170.78Z" style="fill:#020201"/><path d="M2691.46,139.14c0-7.59,10.71-14.68,19.23-14.68,5.66,0,9.62,2.87,9.62,7.34,0,7.42-10.71,14.68-19.4,14.68C2695.59,146.48,2691.46,143.78,2691.46,139.14Z" style="fill:#020201"/><line x1="2692.12" y1="191.54" x2="2692.12" y2="277.88" style="fill:none;stroke:#020201;stroke-linejoin:bevel;stroke-width:1.977349949493966px"/><path d="M2691.46,191.87c0-7.6,10.71-14.68,19.23-14.68,5.66,0,9.62,2.87,9.62,7.34,0,7.42-10.71,14.68-19.4,14.68C2695.59,199.21,2691.46,196.51,2691.46,191.87Z" style="fill:#020201"/><path d="M2691.46,223.51c0-7.6,10.71-14.68,19.23-14.68,5.66,0,9.62,2.87,9.62,7.34,0,7.42-10.71,14.68-19.4,14.68C2695.59,230.85,2691.46,228.15,2691.46,223.51Z" style="fill:#020201"/><line x1="2856.9" y1="132.22" x2="2856.9" y2="77.51" style="fill:none;stroke:#020201;stroke-linejoin:bevel;stroke-width:1.977349949493966px"/><path d="M2828.55,139.14c0-7.59,10.72-14.68,19.24-14.68,5.65,0,9.62,2.87,9.62,7.34,0,7.42-10.72,14.68-19.41,14.68C2832.69,146.48,2828.55,143.78,2828.55,139.14Z" style="fill:#020201"/><path d="M2875.45,135.51a4,4,0,0,1-4,3.8,4.1,4.1,0,0,1-3.88-3.8,4,4,0,1,1,7.93,0Z" style="fill:#020201"/><line x1="2820.65" y1="230.43" x2="2866.13" y2="230.43" style="fill:none;stroke:#020201;stroke-linejoin:bevel;stroke-width:3.2955834681150735px"/><line x1="2829.22" y1="180.99" x2="2829.22" y2="288.43" style="fill:none;stroke:#020201;stroke-linejoin:bevel;stroke-width:1.977349949493966px"/><path d="M2846.69,166.22c7,0,11.56,3.12,11.56,8.52,0,7.93-9.7,14.35-19.32,14.35-5.74,0-10.38-2.79-10.38-7.51C2828.55,173.82,2838.09,166.22,2846.69,166.22Zm-16.19,16.37c0,2.61,1.6,4,4.8,4,6,0,21-8.94,21-13.83,0-2.62-1.6-4-4.81-4C2846.1,168.75,2830.5,177.36,2830.5,182.59Z" style="fill:#020201"/><path d="M2819,176.77c7,0,11.56,3.12,11.56,8.52,0,7.93-9.7,14.34-19.32,14.34-5.74,0-10.37-2.79-10.37-7.51C2800.88,184.36,2810.41,176.77,2819,176.77Zm-16.19,16.36c0,2.62,1.6,4,4.8,4,6,0,21-8.95,21-13.84,0-2.61-1.6-4-4.81-4C2818.42,179.3,2802.82,187.9,2802.82,193.13Z" style="fill:#020201"/><path d="M2846.69,219c7,0,11.56,3.12,11.56,8.52,0,7.93-9.7,14.34-19.32,14.34-5.74,0-10.38-2.78-10.38-7.5C2828.55,226.54,2838.09,219,2846.69,219Zm-16.19,16.37c0,2.61,1.6,4,4.8,4,6,0,21-8.94,21-13.83,0-2.62-1.6-4-4.81-4C2846.1,221.48,2830.5,230.09,2830.5,235.32Z" style="fill:#020201"/><line x1="3042.11" y1="132.22" x2="3042.11" y2="77.51" style="fill:none;stroke:#020201;stroke-linejoin:bevel;stroke-width:1.977349949493966px"/><path d="M3013.77,139.14c0-7.59,10.71-14.68,19.23-14.68,5.66,0,9.62,2.87,9.62,7.34,0,7.42-10.71,14.68-19.4,14.68C3017.9,146.48,3013.77,143.78,3013.77,139.14Z" style="fill:#020201"/><path d="M3042.3,77.51c.76,0,1.18,0,1.1.08a1.56,1.56,0,0,0-.09.68,2.23,2.23,0,0,0,.09.76,65.16,65.16,0,0,0,9.28,17c4.64,5.82,7.25,9.28,7.84,10.29a19,19,0,0,1,3,10.29v.43c0,10.8-4.3,16.7-5.15,16.7a.62.62,0,0,1-.67-.67,4.77,4.77,0,0,1,.5-1.61c2.2-4.89,2.28-5.48,2.45-13.07V118c0-5.9-3.46-11.22-10.29-16-2.45-1.77-3.88-3.37-8.1-3.37Z" style="fill:#020201"/><line x1="3173.28" y1="174.4" x2="3173.28" y2="66.97" style="fill:none;stroke:#020201;stroke-linejoin:bevel;stroke-width:1.977349949493966px"/><path d="M3144.93,181.32c0-7.59,10.72-14.68,19.24-14.68,5.65,0,9.62,2.87,9.62,7.34,0,7.43-10.72,14.68-19.41,14.68C3149.07,188.66,3144.93,186,3144.93,181.32Z" style="fill:#020201"/><path d="M3144.93,128.6c0-7.6,10.72-14.68,19.24-14.68,5.65,0,9.62,2.86,9.62,7.34,0,7.42-10.72,14.68-19.41,14.68C3149.07,135.94,3144.93,133.24,3144.93,128.6Z" style="fill:#020201"/><line x1="3145.59" y1="202.08" x2="3145.59" y2="277.88" style="fill:none;stroke:#020201;stroke-linejoin:bevel;stroke-width:1.977349949493966px"/><path d="M3144.93,202.42c0-7.6,10.72-14.68,19.24-14.68,5.65,0,9.62,2.86,9.62,7.34,0,7.42-10.72,14.68-19.41,14.68C3149.07,209.76,3144.93,207.06,3144.93,202.42Z" style="fill:#020201"/><path d="M3144.93,223.51c0-7.6,10.72-14.68,19.24-14.68,5.65,0,9.62,2.87,9.62,7.34,0,7.42-10.72,14.68-19.41,14.68C3149.07,230.85,3144.93,228.15,3144.93,223.51Z" style="fill:#020201"/><line x1="3311.03" y1="142.76" x2="3311.03" y2="82.78" style="fill:none;stroke:#020201;stroke-linejoin:bevel;stroke-width:1.977349949493966px"/><path d="M3282.69,149.69c0-7.6,10.71-14.68,19.23-14.68,5.66,0,9.62,2.87,9.62,7.34,0,7.42-10.71,14.68-19.4,14.68C3286.82,157,3282.69,154.33,3282.69,149.69Z" style="fill:#020201"/><path d="M3329.58,135.51a4,4,0,0,1-4,3.8,4.1,4.1,0,0,1-3.88-3.8,4,4,0,1,1,7.93,0Z" style="fill:#020201"/><line x1="3274.78" y1="230.43" x2="3320.26" y2="230.43" style="fill:none;stroke:#020201;stroke-linejoin:bevel;stroke-width:3.2955834681150735px"/><line x1="3283.35" y1="202.08" x2="3283.35" y2="298.97" style="fill:none;stroke:#020201;stroke-linejoin:bevel;stroke-width:1.977349949493966px"/><path d="M3300.83,187.31c7,0,11.56,3.13,11.56,8.52,0,7.94-9.71,14.35-19.32,14.35-5.74,0-10.38-2.79-10.38-7.51C3282.69,194.91,3292.22,187.31,3300.83,187.31Zm-16.2,16.37c0,2.62,1.6,4,4.81,4,6,0,21-9,21-13.84,0-2.62-1.61-4-4.81-4C3300.24,189.85,3284.63,198.45,3284.63,203.68Z" style="fill:#020201"/><path d="M3300.83,229.5c7,0,11.56,3.12,11.56,8.52,0,7.93-9.71,14.34-19.32,14.34-5.74,0-10.38-2.79-10.38-7.51C3282.69,237.09,3292.22,229.5,3300.83,229.5Zm-16.2,16.36c0,2.62,1.6,4,4.81,4,6,0,21-8.94,21-13.84,0-2.61-1.61-4-4.81-4C3300.24,232,3284.63,240.63,3284.63,245.86Z" style="fill:#020201"/><line x1="3496.24" y1="142.76" x2="3496.24" y2="82.78" style="fill:none;stroke:#020201;stroke-linejoin:bevel;stroke-width:1.977349949493966px"/><path d="M3467.9,149.69c0-7.6,10.72-14.68,19.24-14.68,5.65,0,9.61,2.87,9.61,7.34,0,7.42-10.71,14.68-19.4,14.68C3472,157,3467.9,154.33,3467.9,149.69Z" style="fill:#020201"/><path d="M3496.43,82.78c.76,0,1.18,0,1.1.09a1.54,1.54,0,0,0-.09.67,2.2,2.2,0,0,0,.09.76,65,65,0,0,0,9.28,17c4.64,5.82,7.25,9.28,7.84,10.3a18.94,18.94,0,0,1,3,10.29v.42c0,10.8-4.3,16.7-5.15,16.7a.62.62,0,0,1-.67-.67,4.59,4.59,0,0,1,.51-1.6c2.19-4.9,2.27-5.49,2.44-13.08v-.42c0-5.91-3.46-11.22-10.29-16-2.45-1.77-3.88-3.38-8.1-3.38Z" style="fill:#020201"/><line x1="3591.16" y1="103.88" x2="3635.98" y2="103.88" style="fill:none;stroke:#020201;stroke-linejoin:bevel;stroke-width:3.2955834681150735px"/><line x1="3627.41" y1="142.76" x2="3627.41" y2="35.33" style="fill:none;stroke:#020201;stroke-linejoin:bevel;stroke-width:1.977349949493966px"/><path d="M3599.06,149.69c0-7.6,10.72-14.68,19.24-14.68,5.65,0,9.62,2.87,9.62,7.34,0,7.42-10.72,14.68-19.41,14.68C3603.2,157,3599.06,154.33,3599.06,149.69Z" style="fill:#020201"/><path d="M3599.06,97c0-7.6,10.72-14.68,19.24-14.68,5.65,0,9.62,2.87,9.62,7.34,0,7.42-10.72,14.68-19.41,14.68C3603.2,104.3,3599.06,101.6,3599.06,97Z" style="fill:#020201"/><line x1="3591.16" y1="230.43" x2="3635.98" y2="230.43" style="fill:none;stroke:#020201;stroke-linejoin:bevel;stroke-width:3.2955834681150735px"/><line x1="3591.16" y1="251.52" x2="3635.98" y2="251.52" style="fill:none;stroke:#020201;stroke-linejoin:bevel;stroke-width:3.2955834681150735px"/><line x1="3599.72" y1="212.63" x2="3599.72" y2="320.07" style="fill:none;stroke:#020201;stroke-linejoin:bevel;stroke-width:1.977349949493966px"/><path d="M3599.06,213c0-7.59,10.72-14.68,19.24-14.68,5.65,0,9.62,2.87,9.62,7.34,0,7.42-10.72,14.68-19.41,14.68C3603.2,220.3,3599.06,217.6,3599.06,213Z" style="fill:#020201"/><path d="M3599.06,265.69c0-7.59,10.72-14.68,19.24-14.68,5.65,0,9.62,2.87,9.62,7.34,0,7.43-10.72,14.68-19.41,14.68C3603.2,273,3599.06,270.33,3599.06,265.69Z" style="fill:#020201"/><line x1="3728.91" y1="230.43" x2="3773.73" y2="230.43" style="fill:none;stroke:#020201;stroke-linejoin:bevel;stroke-width:3.2955834681150735px"/><line x1="3728.91" y1="251.52" x2="3773.73" y2="251.52" style="fill:none;stroke:#020201;stroke-linejoin:bevel;stroke-width:3.2955834681150735px"/><line x1="3737.48" y1="212.63" x2="3737.48" y2="309.52" style="fill:none;stroke:#020201;stroke-linejoin:bevel;stroke-width:1.977349949493966px"/><path d="M3736.82,213c0-7.59,10.72-14.68,19.24-14.68,5.65,0,9.61,2.87,9.61,7.34,0,7.42-10.71,14.68-19.4,14.68C3741,220.3,3736.82,217.6,3736.82,213Z" style="fill:#020201"/><path d="M3736.82,255.14c0-7.59,10.72-14.68,19.24-14.68,5.65,0,9.61,2.87,9.61,7.34,0,7.43-10.71,14.68-19.4,14.68C3741,262.48,3736.82,259.78,3736.82,255.14Z" style="fill:#020201"/><path d="M3783.71,262.06a4,4,0,0,1-4.05,3.8,4.1,4.1,0,0,1-3.88-3.8,4,4,0,1,1,7.93,0Z" style="fill:#020201"/><path d="M3783.71,219.88a4,4,0,0,1-4.05,3.8,4.1,4.1,0,0,1-3.88-3.8,4,4,0,1,1,7.93,0Z" style="fill:#020201"/><path d="M3737.66,288.43c3.55,0,3.88-.09,9.12-4.31q6.19-4.94,7.34-6.07a20.57,20.57,0,0,0,5.56-13.92c0-3.63-1.43-8.27-4.38-13.75a3.46,3.46,0,0,1-.51-1.61c0-.5.09-.75.34-.75,2,0,5.4,8.26,6.49,12.57a26.39,26.39,0,0,1,.85,6.74,19.71,19.71,0,0,1-4.81,12.74c-3.12,3.72-6.58,7.09-9.62,10.8-3.71,4.56-6.66,10.46-9.28,17a2.49,2.49,0,0,0-.08.76,1.74,1.74,0,0,0,.08.68c.08.08-.34.08-1.1.08Z" style="fill:#020201"/><line x1="3728.91" y1="103.88" x2="3773.73" y2="103.88" style="fill:none;stroke:#020201;stroke-linejoin:bevel;stroke-width:3.2955834681150735px"/><line x1="3765.16" y1="153.31" x2="3765.16" y2="35.99" style="fill:none;stroke:#020201;stroke-linejoin:bevel;stroke-width:1.977349949493966px"/><path d="M3736.82,160.23c0-7.59,10.72-14.68,19.24-14.68,5.65,0,9.61,2.87,9.61,7.34,0,7.43-10.71,14.68-19.4,14.68C3741,167.57,3736.82,164.87,3736.82,160.23Z" style="fill:#020201"/><path d="M3736.82,107.5c0-7.59,10.72-14.68,19.24-14.68,5.65,0,9.61,2.87,9.61,7.34,0,7.43-10.71,14.68-19.4,14.68C3741,114.84,3736.82,112.14,3736.82,107.5Z" style="fill:#020201"/><path d="M3783.71,156.6a4,4,0,0,1-4.05,3.8,4.1,4.1,0,0,1-3.88-3.8,4,4,0,1,1,7.93,0Z" style="fill:#020201"/><path d="M3783.71,93.33a4,4,0,0,1-4.05,3.8,4.1,4.1,0,0,1-3.88-3.8,4,4,0,1,1,7.93,0Z" style="fill:#020201"/><line x1="3882.48" y1="111.13" x2="3882.48" y2="42.58" style="fill:none;stroke:#020201;stroke-linejoin:bevel;stroke-width:1.977349949493966px"/><path d="M3854.14,118.05c0-7.59,10.72-14.68,19.24-14.68,5.65,0,9.62,2.87,9.62,7.34,0,7.42-10.72,14.68-19.41,14.68C3858.28,125.39,3854.14,122.69,3854.14,118.05Z" style="fill:#020201"/><line x1="3947.74" y1="121.67" x2="3947.74" y2="46.53" style="fill:none;stroke:#020201;stroke-linejoin:bevel;stroke-width:1.977349949493966px"/><path d="M3919.39,128.6c0-7.6,10.72-14.68,19.24-14.68,5.65,0,9.62,2.86,9.62,7.34,0,7.42-10.72,14.68-19.41,14.68C3923.53,135.94,3919.39,133.24,3919.39,128.6Z" style="fill:#020201"/><line x1="3985.31" y1="117.72" x2="3985.31" y2="198.13" style="fill:none;stroke:#020201;stroke-linejoin:bevel;stroke-width:1.977349949493966px"/><path d="M3984.65,118.05c0-7.59,10.71-14.68,19.23-14.68,5.66,0,9.62,2.87,9.62,7.34,0,7.42-10.71,14.68-19.4,14.68C3988.78,125.39,3984.65,122.69,3984.65,118.05Z" style="fill:#020201"/><path d="M4031.54,114.42a4,4,0,0,1-4.05,3.8,4.1,4.1,0,0,1-3.88-3.8,4,4,0,1,1,7.93,0Z" style="fill:#020201"/><line x1="4103.29" y1="138.81" x2="4103.29" y2="208.68" style="fill:none;stroke:#020201;stroke-linejoin:bevel;stroke-width:1.977349949493966px"/><path d="M4102.63,139.14c0-7.59,10.71-14.68,19.23-14.68,5.66,0,9.62,2.87,9.62,7.34,0,7.42-10.71,14.68-19.4,14.68C4106.76,146.48,4102.63,143.78,4102.63,139.14Z" style="fill:#020201"/><rect x="-163.17" y="-260.62" width="187.85" height="2909.34" style="fill:#fff"/><rect x="4229.18" y="-260.62" width="105.46" height="2909.34" style="fill:#fff"/></g></svg>