<svg id="Layer_1" data-name="Layer 1" xmlns="http://www.w3.org/2000/svg" width="108" height="108" fill="#000000" viewBox="0 0 108 108"><title>doubleSharp</title><path d="M101.48,101.07h-27C73.88,84.3,65.76,71.23,54,59.48,42.53,71.06,34.5,84.07,34.07,101H6.61V96c0-6.47,0-12.94,0-19.42,0-2.06.41-3.06,2.77-3.16,15.7-.66,27.89-8.46,39-19.31C37.72,43.7,26.06,35.72,10.9,34.59c-3.47-.26-4.5-1.27-4.38-4.73.27-7.54.09-15.1.09-22.89H34.08C34.47,23.69,42.47,36.67,54,48.4,65.61,36.82,73.83,23.86,74.44,6.93h27.05V33c-7.61,2.44-15.33,4-22.21,7.35s-13,8.42-19.9,13.06c12.33,12,24.89,20.71,42.1,20.22Z"/></svg>