<svg id="Layer_1" data-name="Layer 1" xmlns="http://www.w3.org/2000/svg" width="136.12" height="136.12" viewBox="0 0 136.12 136.12"><title>notes</title><path d="M51.74,134.73V133c-.16-35.81-.27-71.62-.54-107.43a19.07,19.07,0,0,1,5.41-14C63.71,4.1,72.36,0,82.77,0a20.2,20.2,0,0,1,6.38,1.21c6.72,2.38,9.42,8.33,7,15a22.11,22.11,0,0,1-6.74,9.35c-7.2,6.12-15.4,9.68-25,9.3a15.87,15.87,0,0,1-9.91-3.7L54.8,101a16.57,16.57,0,0,0,7.75-3.08c4.14-3.06,8.15-6.28,12.13-9.55,1.81-1.49,3.45-3.21,5.11-4.88,7.68-7.74,9.62-17.06,6.78-27.29C84.94,50.35,82.41,44.75,80.32,39a6.61,6.61,0,0,1-.18-1.68c.59.12,1.41,0,1.74.41A23,23,0,0,1,85.08,42a57.39,57.39,0,0,1,5.1,14.11A77.17,77.17,0,0,1,92,65.85c.67,6.19-1.3,11.8-4.43,17.05-3,5.09-6.94,9.52-10.83,13.94-2.28,2.59-4.59,5.16-6.81,7.8-6.38,7.57-10.6,16.36-14.26,25.46a15.67,15.67,0,0,0-.85,2.47C54.36,134.84,54.21,135,51.74,134.73Z" style="fill:#222221"/></svg>