<svg id="Layer_1" data-name="Layer 1" xmlns="http://www.w3.org/2000/svg" width="136.12" height="136.12" viewBox="0 0 136.12 136.12"><title>notes</title><path d="M58.42,32.18c18.09,1.07,31.38-8.52,44.7-19.43-.36,1.15-.55,1.88-.82,2.58Q80.38,73.5,58.49,131.68c-.74,2-1.69,2.85-3.9,2.71-2.94-.18-5.92,0-9.5.05C60.4,99.73,75.56,65.37,91,30.49c-1.51.42-2.57.69-3.62,1-10.12,3.25-20.33,6.33-31,6.59A62.17,62.17,0,0,1,38.8,36.29C29.41,33.76,24.17,25,25.89,15.43A14.19,14.19,0,0,1,30.25,8c7-6.21,15.32-7.54,24.14-4.73,6.57,2.1,9.63,8.83,7.83,17C61.39,24.09,59.87,27.73,58.42,32.18Z" style="fill:#222221"/></svg>