<svg id="Layer_1" data-name="Layer 1" xmlns="http://www.w3.org/2000/svg" width="78.86" height="78.86" viewBox="0 0 78.86 78.86"><title>githubBody</title><path d="M65.31,17.06a2.37,2.37,0,0,1-.41-1.85,15.4,15.4,0,0,0-.18-8.77c-.54-2-1.12-2.4-3.09-1.69A57.67,57.67,0,0,0,54.06,8a5.15,5.15,0,0,1-4,.64,33.75,33.75,0,0,0-15.86-.25,8.25,8.25,0,0,1-6.77-1.08C25.28,6,22.69,5.43,20.26,4.62c-1.08-.36-1.83,0-2.18,1.29a16.15,16.15,0,0,0-.3,9.34,2.76,2.76,0,0,1-.4,1.85c-.76,1.44-1.78,2.74-2.44,4.21-1.76,3.92-1.43,8.05-.74,12.11.65,3.84,1.95,7.44,4.95,10.21a20.32,20.32,0,0,0,9.67,4.87c1.4.31,2.82.56,4,.8-.72,1.83-1.37,3.51-2.07,5.17a2,2,0,0,1-.35.53,8.86,8.86,0,0,1,.14,6.9,2.08,2.08,0,0,1,.09.77c-.07,2.07.08,4.16,0,6.23-.07,1.5-.4,3-.62,4.53H52.68a29.8,29.8,0,0,1-.56-3.78c-.09-3,0-5.94,0-8.91,0-3.94.39-8-2.66-11.37,1.69-.33,3.09-.56,4.47-.89C61,46.82,66.18,43,68.05,35.57a34.34,34.34,0,0,0,.78-4.38C69.43,26.05,68.65,21.25,65.31,17.06Z"/><path d="M30.41,55s-1.43,3.89.14,6.9,3.42-1,3.42-1l.38-4.4-1.6-2Z"/></svg>