<svg id="Layer_1" data-name="Layer 1" xmlns="http://www.w3.org/2000/svg" width="325.11" height="288.01" viewBox="0 0 325.11 288.01"><title>imageIcon</title><path d="M4.84,45.13A39.46,39.46,0,0,1,44.27,5.7H280.84a39.46,39.46,0,0,1,39.43,39.43V242.27a39.46,39.46,0,0,1-39.43,39.43H44.27A39.46,39.46,0,0,1,4.84,242.27Zm199.49,65.61a14.74,14.74,0,0,0-24.4,0l-53.6,78.61L110,169a14.73,14.73,0,0,0-23,0L47.54,218.24a14.78,14.78,0,0,0,11.52,24h207a14.77,14.77,0,0,0,12.19-23.1L204.33,110.74ZM73.84,104.27A29.57,29.57,0,1,0,44.27,74.7,29.57,29.57,0,0,0,73.84,104.27Z" style="fill:#060606"/></svg>