<svg id="Layer_1" data-name="Layer 1" xmlns="http://www.w3.org/2000/svg" width="325.11" height="288.01" viewBox="0 0 325.11 288.01"><title>imageIcon</title><path d="M280.84,5.7H44.27A39.46,39.46,0,0,0,4.84,45.13V242.27A39.46,39.46,0,0,0,44.27,281.7H280.84a39.46,39.46,0,0,0,39.43-39.43V45.13A39.46,39.46,0,0,0,280.84,5.7Zm-1.72,228.68a14.7,14.7,0,0,1-13.06,7.89h-207a14.78,14.78,0,0,1-11.52-24L87,169a14.73,14.73,0,0,1,23,0l16.33,20.39,53.6-78.61a14.74,14.74,0,0,1,24.4,0l73.92,108.43A14.84,14.84,0,0,1,279.12,234.38Z" style="fill:#060606"/></svg>