<svg id="Layer_1" data-name="Layer 1" xmlns="http://www.w3.org/2000/svg" width="43.06" height="43.06" viewBox="0 0 43.06 43.06"><title>linkIcon</title><path d="M27.41.5A15,15,0,0,1,39.59,24.56a3.08,3.08,0,0,1-4.29.84,3.41,3.41,0,0,1-1.1-4.52,17.42,17.42,0,0,0,1.59-3.67A8.21,8.21,0,0,0,31.39,8,8.81,8.81,0,0,0,21,9.81Q15.32,15.59,9.62,21.34A8.52,8.52,0,0,0,20.08,34.7a7.11,7.11,0,0,1,1.67-.85,3.38,3.38,0,0,1,3.82,1.56,3,3,0,0,1-.95,4.08,20.26,20.26,0,0,1-6.34,2.81,14.91,14.91,0,0,1-17.53-12A14.73,14.73,0,0,1,5,16.58Q11,10.34,17.35,4.35A13.69,13.69,0,0,1,27.41.5Z"/></svg>