<svg id="Layer_1" data-name="Layer 1" xmlns="http://www.w3.org/2000/svg" width="496" height="512" viewBox="0 0 496 512"><title>youtube</title><path d="M248,8.13C111.11,8.13.13,119.11.13,256S111.11,503.87,248,503.87,495.87,392.89,495.87,256,384.89,8.13,248,8.13ZM160.19,396.46h-66V184.34h66Zm-33-241.1a38.2,38.2,0,1,1,38.19-38.19A38.21,38.21,0,0,1,127.16,155.36ZM407,396.46H341.16V293.27c0-24.6-.49-56.25-34.23-56.25-34.32,0-39.58,26.79-39.58,54.47v105H201.47V184.34h63.2v29h.89c8.83-16.67,30.36-34.23,62.41-34.23,66.67,0,79.07,43.95,79.07,101.1Z"/></svg>