<?xml version="1.0" encoding="UTF-8"?>
<svg xmlns="http://www.w3.org/2000/svg" version="1.1" viewBox="0 0 1920 1080">
  <!-- Generator: Adobe Illustrator 28.7.1, SVG Export Plug-In . SVG Version: 1.2.0 Build 142)  -->
  <g>
    <g id="Layer_1">
      <path d="M127.83,109.87l-61.5-35.51c-5.85-3.38-13.17.84-13.17,7.6v71.02c0,6.76,7.32,10.98,13.17,7.6l61.5-35.51c5.85-3.38,5.85-11.83,0-15.21Z"/>
      <path d="M1300.32,329.99l-17.99-10.39c-5.85-3.38-13.17.84-13.17,7.6v20.78c0,6.76,7.32,10.98,13.17,7.6l17.99-10.39c5.85-3.38,5.85-11.83,0-15.21Z"/>
      <path d="M901.83,962.84l-42.5-24.54c-5.85-3.38-13.17.84-13.17,7.6v49.08c0,6.76,7.32,10.98,13.17,7.6l42.5-24.54c5.85-3.38,5.85-11.83,0-15.21Z"/>
      <path d="M1364.83,822.53l-46.5-26.85c-5.85-3.38-13.17.84-13.17,7.6v53.69c0,6.76,7.32,10.98,13.17,7.6l46.5-26.85c5.85-3.38,5.85-11.83,0-15.21Z"/>
      <g>
        <rect x="79" y="908.27" width="13.35" height="67.73" rx="6.67" ry="6.67"/>
        <rect x="109.65" y="908.27" width="13.35" height="67.73" rx="6.67" ry="6.67"/>
      </g>
      <g>
        <rect x="232" y="533.57" width="14.87" height="75.43" rx="7.43" ry="7.43"/>
        <rect x="266.13" y="533.57" width="14.87" height="75.43" rx="7.43" ry="7.43"/>
      </g>
      <g>
        <rect x="650" y="80" width="11.82" height="60" rx="5.91" ry="5.91"/>
        <rect x="677.15" y="80" width="11.82" height="60" rx="5.91" ry="5.91"/>
      </g>
      <g>
        <rect x="494" y="828" width="27" height="137" rx="13.5" ry="13.5"/>
        <rect x="556" y="828" width="27" height="137" rx="13.5" ry="13.5"/>
      </g>
      <g>
        <rect x="1552" y="451.35" width="12.74" height="64.65" rx="6.37" ry="6.37"/>
        <rect x="1581.26" y="451.35" width="12.74" height="64.65" rx="6.37" ry="6.37"/>
      </g>
      <g>
        <rect x="1129" y="61" width="27" height="137" rx="13.5" ry="13.5"/>
        <rect x="1191" y="61" width="27" height="137" rx="13.5" ry="13.5"/>
      </g>
      <rect x="1685" y="66" width="137" height="137" rx="13.5" ry="13.5"/>
      <rect x="1708" y="710" width="78" height="78" rx="13.5" ry="13.5"/>
      <rect x="486" y="242" width="42" height="42" rx="13.5" ry="13.5"/>
      <rect x="53" y="416" width="29" height="29" rx="13.5" ry="13.5"/>
      <rect x="1616" y="961" width="53" height="53" rx="13.5" ry="13.5"/>
    </g>
  </g>
</svg>