<svg id="Layer_1" data-name="Layer 1" xmlns="http://www.w3.org/2000/svg" width="1945.47" height="387.53" viewBox="0 0 1945.47 387.53"><title>musicStaff</title><path d="M1932.73,198.2H12.73v78.67h1920Z" style="fill:none"/><path d="M1932.73,286.23H12.73v78.28h1920Z" style="fill:none"/><path d="M1932.73,22.2H12.73v78.64h1920Z" style="fill:none"/><path d="M1932.73,110.06H12.73v78.78h1920Z" style="fill:none"/><path d="M1932.73,188.84H12.73v9.36h1920Z"/><path d="M1932.73,100.84H12.73v9.22h1920Z"/><path d="M1932.73,13.19q-960,0-1920,0v9h1920Z"/><path d="M1932.73,276.87H12.73v9.36h1920Z"/><path d="M12.73,364.51v8.89q960,0,1920,0v-8.89Z"/><rect x="1859.73" y="17.76" width="73" height="356" style="fill:#060606"/><rect x="1801.73" y="17.76" width="22" height="351" style="fill:#060606"/><rect x="12.73" y="12.76" width="21" height="361" style="fill:#060606"/></svg>