<svg id="Layer_1" data-name="Layer 1" xmlns="http://www.w3.org/2000/svg" width="136.12" height="136.12" viewBox="0 0 136.12 136.12"><title>quarterToneDown</title><path d="M28.5,87.25.25,76.59l28.31-10.8c-.95,3-1.79,5.68-2.67,8.49h32c-3-8.19-6.08-16.3-9.19-24.61l87.3-.21v3.81l-33.12.06,9.33,25-86.36.15C26.76,81.48,27.59,84.21,28.5,87.25Zm69.17-13a2.22,2.22,0,0,0,0-.63c-2.35-6.4-4.73-12.79-7-19.21-.38-1-1.07-1-1.92-1q-12.1,0-24.22.05c-.43,0-.86.06-1.46.1,2.44,6.77,4.8,13.35,7.23,19.9a1.85,1.85,0,0,0,1.45.82c2.41.09,4.83,0,7.25,0Z"/></svg>