<svg id="Layer_1" data-name="Layer 1" xmlns="http://www.w3.org/2000/svg" width="288.41" height="274.14" viewBox="0 0 288.41 274.14"><title>repeatSign</title><path d="M279.6,260.6c-1.72-.15-3.45-.44-5.18-.44q-129.59,0-259.17,0c-1.73,0-3.45.29-5.18.44v-5.73c2.06-.11,4.11-.32,6.17-.32q66.39,0,132.78,0h5.56V199.65H19.13c-3,0-6-.14-9.06-.21v-5.74a24.7,24.7,0,0,0,2.83.3q69,0,138,0a34.55,34.55,0,0,0,3.69-.39V139.21H10.07v-5.73q71.37,0,142.76.07a7.75,7.75,0,0,0,1.76-.42V79H10.07V73.26H154.58V18.59h-6.05q-52.05,0-104.09,0c-11.46,0-22.92.12-34.37.18V13.05c2.06,0,4.13-.12,6.2-.12H273.41c2.06,0,4.13.08,6.19.12v5.73h-63V73.26h63V79h-63v54.48h63v5.73h-63v54.48h63v5.74h-63v55.11h6.3l56.72.33ZM164.3,199.89c0,17.64,0,34.79.11,51.93a3.55,3.55,0,0,0,2.37,2.57c6.3.22,12.62.12,18.93.12V199.89Zm.35-181.1V72.92h21V18.79Zm21.2,60.51h-21.2v53.94h21.2Zm-21.26,60.22v54.17h21.16V139.52Z"/><path d="M120,155.2a11.15,11.15,0,1,1,.47,22.29c-6,.15-11.59-5.14-11.62-10.93A11.45,11.45,0,0,1,120,155.2Z"/><path d="M131.5,106.24a11.46,11.46,0,0,1-11.58,10.92c-5.71-.13-11.08-5.5-11.07-11.08a11.65,11.65,0,0,1,11.21-11.41A11.42,11.42,0,0,1,131.5,106.24Z"/></svg>