<svg id="Layer_1" data-name="Layer 1" xmlns="http://www.w3.org/2000/svg" width="136.12" height="136.12" viewBox="0 0 136.12 136.12"><title>notes</title><path d="M95.28,81c5.28,8.24,8,17.12,6.85,27-1.59,13.74-13.71,26.13-27.31,27a36.81,36.81,0,0,1-25.45-7.51c-4.82-3.71-7.47-8.56-6-14.87a11.93,11.93,0,0,1,6.39-8.1c2.76-1.42,5.61-1.7,8.22.28s4.27,4.88,3.69,8.41a51.13,51.13,0,0,1-1.6,6c-1.19,4.16,0,6.76,4.25,7.73a27.55,27.55,0,0,0,9.72.72c7.77-1.07,11.89-7.95,10.07-16a20.74,20.74,0,0,0-5.51-9.86c-4.86-5-9.92-9.77-15-14.54C61,84.74,58.12,82.51,55.21,80L7.7,127.1l-6.08-5,47.6-47c-.56-.51-1.06-1-1.58-1.42-6.72-5.8-13-12-17.84-19.51-4.44-6.76-7.48-14-7.44-22.25.05-10.67,5.37-18.55,13.91-24.32C48.64-.77,61.38-.37,74,7.08a23.48,23.48,0,0,1,6.86,6.65c2.87,4.06,2.8,8.62.32,13a10.12,10.12,0,0,1-10.35,5c-4.36-.61-7-3.2-8-7.35a44.29,44.29,0,0,1-.75-6.12c-.1-1.09,0-2.19-.12-3.28-.33-3.42-1.73-5.12-5.15-5.46a22.72,22.72,0,0,0-7.27.31c-6.29,1.41-9.58,6.87-7.86,13.08a21.21,21.21,0,0,0,3.39,7.09,66.5,66.5,0,0,0,8.54,9.43c5.3,4.7,10.94,9,16.63,13.66L115.58,8.77l6,5.48-45,44.88" style="fill:#222221"/><path d="M7.79,71.59a8.66,8.66,0,0,1,9.46-7.66,8.67,8.67,0,0,1-1.61,17.26A9,9,0,0,1,7.79,71.59Z" style="fill:#222221"/><path d="M109.08,53.14a8.63,8.63,0,0,1-1.43,17.19,8.9,8.9,0,0,1-7.93-9.48A8.53,8.53,0,0,1,109.08,53.14Z" style="fill:#222221"/></svg>