<svg id="Layer_1" data-name="Layer 1" xmlns="http://www.w3.org/2000/svg" width="136.12" height="136.12" viewBox="0 0 136.12 136.12"><title>notes</title><path d="M75.13,104.31,75.32,1.65c1.87-.45,2.15-.37,2.6,1.14,3.72,12.59,11,23.12,19.31,33,2.51,3,5,5.94,7.49,9,5.77,7.09,7.49,15.36,6.66,24.24a60.55,60.55,0,0,1-1.67,7.42,2.17,2.17,0,0,0,0,1.1c2.51,8.06.79,15.63-2.62,23a7,7,0,0,1-1.39,2,1.94,1.94,0,0,1-1.55.54,1.67,1.67,0,0,1-.61-1.45c.48-3.07,1.07-6.12,1.63-9.18.3-1.62.6-3.23.88-4.85a8.18,8.18,0,0,0-1.41-6.18A73.73,73.73,0,0,0,98,73.08,52,52,0,0,0,82.42,61.64c-1-.45-2-.76-3-1.12a7.58,7.58,0,0,0-1.11-.16V62c0,15.76-.21,31.51,0,47.26a20,20,0,0,1-6.92,15.83c-6.86,6.22-14.9,9.72-24.23,9.69a21.48,21.48,0,0,1-7.2-1.37C34,131.29,31.53,126,33.2,120A21,21,0,0,1,39.58,110a35.29,35.29,0,0,1,22-9.72C66.42,100,71.05,100.74,75.13,104.31Zm6.34-68.58-.26.31c.67,1.45,1.31,2.91,2,4.34,3.64,7.43,8,14.29,14.29,19.89,2.47,2.21,4.64,4.77,6.89,7.22.89,1,1.61,2.08,2.54,3.31.59-7.18-.49-13.76-5.29-19A85.93,85.93,0,0,0,85.07,37.7C83.92,37,82.67,36.38,81.47,35.73Z" style="fill:#222221"/></svg>