<svg id="Layer_1" data-name="Layer 1" xmlns="http://www.w3.org/2000/svg" width="496" height="512" viewBox="0 0 496 512"><title>sixteenthNote</title><circle cx="248" cy="255" r="247.91"/><path d="M256.31,355.8l0-283.29c5.15-1.23,5.93-1,7.17,3.14,10.35,34.72,30.36,63.74,53.48,90.95,6.95,8.19,13.92,16.38,20.72,24.7,16,19.53,20.74,42.32,18.5,66.83-.63,6.91-3,13.66-4.56,20.5a6.13,6.13,0,0,0-.11,3c7,22.22,2.27,43.14-7.09,63.51a18.63,18.63,0,0,1-3.84,5.55c-1,1-3.1,1.88-4.26,1.49-.94-.31-1.9-2.69-1.71-4,1.32-8.48,2.94-16.91,4.46-25.36.81-4.46,1.65-8.91,2.39-13.38a22.54,22.54,0,0,0-3.92-17.05c-5.66-7.94-11.43-15.92-18.15-22.94-12.45-13-26.7-23.84-43.15-31.47a88.4,88.4,0,0,0-8.38-3.08,20.33,20.33,0,0,0-3.05-.44v4.64c0,43.47-.39,87,.21,130.41.25,17.91-6.23,32.08-19,43.73-18.88,17.19-41.05,26.88-66.79,26.86a59.24,59.24,0,0,1-19.88-3.73c-16.21-5.95-23.16-20.55-18.6-37.23,3-11,9.37-19.81,17.56-27.36,17.12-15.79,37.15-25.36,60.57-27C232.27,343.94,245.05,346,256.31,355.8Zm17.14-189.26-.72.84c1.85,4,3.63,8,5.57,12,10.09,20.49,22.29,39.39,39.54,54.8,6.83,6.11,12.84,13.14,19.06,19.91,2.44,2.65,4.43,5.71,7,9.11,1.59-19.8-1.42-38-14.72-52.45a236.45,236.45,0,0,0-45.83-38.77C280.22,169.9,276.77,168.32,273.45,166.54Z" style="fill:#fff"/></svg>