<svg id="Layer_1" data-name="Layer 1" xmlns="http://www.w3.org/2000/svg" xmlns:xlink="http://www.w3.org/1999/xlink" width="512" height="512" viewBox="0 0 512 512"><defs><clipPath id="clip-path"><rect x="2" y="212.98" width="508" height="118" style="fill:none"/></clipPath><clipPath id="clip-path-3"><rect x="4.44" y="213.2" width="505.56" height="111.14" style="fill:none"/></clipPath></defs><title>portfolioLogosAll</title><g style="clip-path:url(#clip-path)"><g style="clip-path:url(#clip-path)"><g style="clip-path:url(#clip-path-3)"><path d="M63.66,213.2h64.93l-32.07,104Zm-59.22,0h32.2A29.75,29.75,0,0,1,65,234l28.67,90.38H60.4a28.49,28.49,0,0,1-27.16-19.91Z" style="fill:#020201"/><path d="M186.74,324.34h-52.4V213.2h52.4ZM191.5,213.2H196c32.54,0,51.44,20.17,51.44,55.1s-18.9,56-51,56H191.5Z" style="fill:#020201"/><path d="M238.64,324.34,270.4,222.89l24.17,78a18.1,18.1,0,0,1-17.29,23.45ZM324.22,213.2l23.81,77-38.42,34.13h-2.54L272.62,213.2ZM386.62,226l30.48,98.33H363.91L329.46,213.2h39.78A18.2,18.2,0,0,1,386.62,226" style="fill:#020201"/><path d="M419,213.2h22.24a30.15,30.15,0,0,1,30.15,30.15v39.93H419Zm0,74.85h91v36.29H455.32A36.29,36.29,0,0,1,419,288.05Z" style="fill:#020201"/></g></g></g></svg>