<svg id="Layer_1" data-name="Layer 1" xmlns="http://www.w3.org/2000/svg" width="496" height="512" viewBox="0 0 496 512"><title>youtube</title><polygon points="214.06 305.55 300.92 256.18 214.06 206.82 214.06 305.55"/><path d="M248,9.08C111.63,9.08,1.08,119.63,1.08,256S111.63,502.92,248,502.92,494.92,392.37,494.92,256,384.37,9.08,248,9.08ZM407.13,336.66a41,41,0,0,1-29.38,29.11c-25.82,7-129.75,7-129.75,7s-103.93,0-129.75-6.94a41,41,0,0,1-29.38-29.11c-6.94-26.09-6.94-80.48-6.94-80.48s0-54.47,6.94-80.48a41.64,41.64,0,0,1,29.38-29.56c25.82-7,129.75-7,129.75-7s103.93,0,129.75,7a41.64,41.64,0,0,1,29.38,29.56c6.94,26.1,6.94,80.48,6.94,80.48S414.07,310.66,407.13,336.66Z"/></svg>